<svg width="320" height="36" viewBox="0 0 320 36" fill="none" xmlns="http://www.w3.org/2000/svg">
<path fill-rule="evenodd" clip-rule="evenodd" d="M314 1H6C3.23858 1 1 3.23858 1 6V30C1 32.7614 3.23858 35 6 35H314C316.761 35 319 32.7614 319 30V6C319 3.23858 316.761 1 314 1ZM6 0C2.68629 0 0 2.68629 0 6V30C0 33.3137 2.6863 36 6 36H314C317.314 36 320 33.3137 320 30V6C320 2.68629 317.314 0 314 0H6Z" fill="#424242"/>
<path d="M148.496 23V14.2727H153.968V15.4062H149.813V18.0653H153.682V19.1946H149.813V21.8665H154.019V23H148.496ZM165.003 21.9006L164.884 24.875H163.635V23H162.822V21.9006H165.003ZM155.624 16.4545H156.873V21.8963H159.135V16.4545H160.384V21.8963H162.647V16.4545H163.895V23H155.624V16.4545ZM169.097 23.1321C168.453 23.1321 167.897 22.9943 167.431 22.7188C166.968 22.4403 166.61 22.0497 166.357 21.5469C166.107 21.0412 165.982 20.4489 165.982 19.7699C165.982 19.0994 166.107 18.5085 166.357 17.9972C166.61 17.4858 166.963 17.0866 167.414 16.7997C167.869 16.5128 168.4 16.3693 169.008 16.3693C169.377 16.3693 169.735 16.4304 170.082 16.5526C170.428 16.6747 170.74 16.8665 171.015 17.1278C171.291 17.3892 171.508 17.7287 171.667 18.1463C171.826 18.5611 171.906 19.0653 171.906 19.6591V20.1108H166.703V19.1562H170.657C170.657 18.821 170.589 18.5241 170.453 18.2656C170.316 18.0043 170.124 17.7983 169.877 17.6477C169.633 17.4972 169.346 17.4219 169.017 17.4219C168.659 17.4219 168.346 17.5099 168.079 17.6861C167.815 17.8594 167.61 18.0866 167.465 18.3679C167.323 18.6463 167.252 18.9489 167.252 19.2756V20.0213C167.252 20.4588 167.329 20.831 167.482 21.1378C167.639 21.4446 167.856 21.679 168.134 21.8409C168.413 22 168.738 22.0795 169.11 22.0795C169.352 22.0795 169.572 22.0455 169.771 21.9773C169.97 21.9062 170.142 21.8011 170.286 21.6619C170.431 21.5227 170.542 21.3509 170.619 21.1463L171.825 21.3636C171.728 21.7187 171.555 22.0298 171.305 22.2969C171.058 22.5611 170.747 22.767 170.372 22.9148C169.999 23.0597 169.575 23.1321 169.097 23.1321ZM167.708 15.4276C167.507 15.4276 167.33 15.3537 167.18 15.206C167.029 15.0554 166.954 14.8821 166.954 14.6861C166.954 14.473 167.029 14.2955 167.18 14.1534C167.33 14.0114 167.507 13.9403 167.708 13.9403C167.921 13.9403 168.099 14.0114 168.241 14.1534C168.386 14.2955 168.458 14.473 168.458 14.6861C168.458 14.8821 168.386 15.0554 168.241 15.206C168.099 15.3537 167.921 15.4276 167.708 15.4276ZM170.214 15.4276C170.012 15.4276 169.836 15.3537 169.686 15.206C169.535 15.0554 169.46 14.8821 169.46 14.6861C169.46 14.473 169.535 14.2955 169.686 14.1534C169.836 14.0114 170.012 13.9403 170.214 13.9403C170.427 13.9403 170.605 14.0114 170.747 14.1534C170.892 14.2955 170.964 14.473 170.964 14.6861C170.964 14.8821 170.892 15.0554 170.747 15.206C170.605 15.3537 170.427 15.4276 170.214 15.4276Z" fill="white"/>
</svg>
